<svg width="640" height="480" xmlns="http://www.w3.org/2000/svg">

 <g>
  <title>Layer 1</title>
  <g transform="rotate(-90 235.895 231.004)" id="svg_9">
   <g transform="matrix(5.58391 0 0 5.58391 -392.499 -33.9639)" id="svg_5">
    <path id="svg_6" d="m121.553238,68.975624c-8.317001,0 -16.136002,-3.237999 -22.017006,-9.119003c-12.139992,-12.141003 -12.139992,-31.895002 0,-44.035001c5.881004,-5.881 13.700005,-9.12 22.017006,-9.12c8.315994,0 16.136017,3.239 22.016998,9.12c12.140015,12.141 12.140015,31.894998 0,44.035001c-5.880981,5.881004 -13.699997,9.119003 -22.016998,9.119003zm0,-58.274004c-7.249001,0 -14.062996,2.823 -19.189003,7.948c-10.580002,10.580999 -10.580002,27.797001 0,38.377998c5.125,5.125008 11.940002,7.947006 19.189003,7.947006c7.248001,0 14.062012,-2.821999 19.188004,-7.947006c10.580002,-10.580997 10.580002,-27.796999 0,-38.377998c-5.125,-5.125 -11.940002,-7.948 -19.188004,-7.948z"/>
   </g>
   <g transform="matrix(5.58391 0 0 5.58391 -392.499 -33.9639)" id="svg_7">
    <rect id="svg_8" height="33.669" width="9.064" transform="matrix(0.7071 0.7071 -0.7071 0.7071 60.1221 4.8974)" y="14.170694" x="60.908381"/>
   </g>
  </g>
 </g>
</svg>